<?xml version="1.0" encoding="UTF-8" standalone="no"?>
<svg
   viewBox="0 0 24 24"
   width="24px"
   height="24px"
   version="1.1"
   id="svg1"
   sodipodi:docname="icons8-folder.svg"
   inkscape:version="1.3.2 (091e20e, 2023-11-25, custom)"
   xmlns:inkscape="http://www.inkscape.org/namespaces/inkscape"
   xmlns:sodipodi="http://sodipodi.sourceforge.net/DTD/sodipodi-0.dtd"
   xmlns="http://www.w3.org/2000/svg"
   xmlns:svg="http://www.w3.org/2000/svg">
  <defs
     id="defs1" />
  <sodipodi:namedview
     id="namedview1"
     pagecolor="#ffffff"
     bordercolor="#000000"
     borderopacity="0.25"
     inkscape:showpageshadow="2"
     inkscape:pageopacity="0.0"
     inkscape:pagecheckerboard="0"
     inkscape:deskcolor="#d1d1d1"
     inkscape:zoom="49.208333"
     inkscape:cx="12"
     inkscape:cy="12"
     inkscape:window-width="2560"
     inkscape:window-height="1377"
     inkscape:window-x="1912"
     inkscape:window-y="-8"
     inkscape:window-maximized="1"
     inkscape:current-layer="svg1" />
  <g
     inkscape:groupmode="layer"
     id="layer2"
     inkscape:label="background"
     style="fill:#f9f9f9">
    <path
       style="fill:#f9f9f9;stroke:#ffffff"
       d="M 3.4953429,4.4504657 3.6172735,18.553768 20.179509,18.777307 20.850127,14.082981 20.565622,6.8687553 18.797629,6.2387807 c 0,0 -3.434378,0.081287 -3.881456,0.1219306 -0.447079,0.040643 -4.491109,-0.2235394 -4.491109,-0.2235394 L 8.7180356,4.7959356 c 0,0 -1.1176969,-0.6706181 -1.3005928,-0.6706181 -0.1828958,0 -3.9220999,0.3251482 -3.9220999,0.3251482 z"
       id="path2" />
  </g>
  <path
     d="M 4.25 3 C 3.0216715 3 2 4.0216715 2 5.25 L 2 17.75 C 2 18.978329 3.0216715 20 4.25 20 L 19.75 20 C 20.978329 20 22 18.978329 22 17.75 L 22 7.25 C 22 6.0216715 20.978329 5 19.75 5 L 10.601562 5 C 10.482677 5 10.371384 4.952636 10.289062 4.8710938 A 1.250125 1.250125 0 0 0 10.287109 4.8710938 L 9.1210938 3.7167969 A 1.250125 1.250125 0 0 0 9.1191406 3.7167969 C 8.6553924 3.2590746 8.0301712 3 7.3769531 3 L 4.25 3 z M 4.5 5.5 L 7.3691406 5.5 L 8.5292969 6.6484375 C 9.0809759 7.1948956 9.8264497 7.5 10.601562 7.5 L 19.5 7.5 L 19.5 17.5 L 4.5 17.5 L 4.5 5.5 z"
     id="path1" />
</svg>
